<mxfile host="Electron" agent="Mozilla/5.0 (Windows NT 10.0; Win64; x64) AppleWebKit/537.36 (KHTML, like Gecko) draw.io/26.0.9 Chrome/128.0.6613.186 Electron/32.2.5 Safari/537.36" version="26.0.9">
  <diagram name="Page-1" id="Q6YgsCP4f9UI9eo_PC5J">
    <mxGraphModel dx="1434" dy="2053" grid="1" gridSize="10" guides="1" tooltips="1" connect="1" arrows="1" fold="1" page="1" pageScale="1" pageWidth="827" pageHeight="1169" math="0" shadow="0">
      <root>
        <mxCell id="0" />
        <mxCell id="1" parent="0" />
        <mxCell id="V8MGVwaTu69svF25npwr-1" value="" style="shape=table;startSize=0;container=1;collapsible=0;childLayout=tableLayout;fontSize=16;strokeColor=#CCCCCC;" parent="1" vertex="1">
          <mxGeometry x="40" y="-1120" width="980" height="870" as="geometry" />
        </mxCell>
        <mxCell id="V8MGVwaTu69svF25npwr-2" style="shape=tableRow;horizontal=0;startSize=0;swimlaneHead=0;swimlaneBody=0;strokeColor=inherit;top=0;left=0;bottom=0;right=0;collapsible=0;dropTarget=0;fillColor=default;points=[[0,0.5],[1,0.5]];portConstraint=eastwest;fontSize=16;" parent="V8MGVwaTu69svF25npwr-1" vertex="1">
          <mxGeometry width="980" height="50" as="geometry" />
        </mxCell>
        <mxCell id="V8MGVwaTu69svF25npwr-3" value="&lt;b&gt;SYMBOLOGY&lt;/b&gt;" style="shape=partialRectangle;html=1;whiteSpace=wrap;connectable=0;strokeColor=inherit;overflow=hidden;fillColor=none;top=0;left=0;bottom=0;right=0;pointerEvents=1;fontSize=16;rowspan=1;colspan=2;" parent="V8MGVwaTu69svF25npwr-2" vertex="1">
          <mxGeometry width="980" height="50" as="geometry">
            <mxRectangle width="260" height="50" as="alternateBounds" />
          </mxGeometry>
        </mxCell>
        <mxCell id="V8MGVwaTu69svF25npwr-4" style="shape=partialRectangle;html=1;whiteSpace=wrap;connectable=0;strokeColor=inherit;overflow=hidden;fillColor=none;top=0;left=0;bottom=0;right=0;pointerEvents=1;fontSize=16;align=left;" parent="V8MGVwaTu69svF25npwr-2" vertex="1" visible="0">
          <mxGeometry x="260" width="720" height="50" as="geometry">
            <mxRectangle width="720" height="50" as="alternateBounds" />
          </mxGeometry>
        </mxCell>
        <mxCell id="V8MGVwaTu69svF25npwr-5" value="" style="shape=tableRow;horizontal=0;startSize=0;swimlaneHead=0;swimlaneBody=0;strokeColor=inherit;top=0;left=0;bottom=0;right=0;collapsible=0;dropTarget=0;fillColor=none;points=[[0,0.5],[1,0.5]];portConstraint=eastwest;fontSize=16;" parent="V8MGVwaTu69svF25npwr-1" vertex="1">
          <mxGeometry y="50" width="980" height="50" as="geometry" />
        </mxCell>
        <mxCell id="V8MGVwaTu69svF25npwr-6" value="" style="shape=partialRectangle;html=1;whiteSpace=wrap;connectable=0;strokeColor=inherit;overflow=hidden;fillColor=none;top=0;left=0;bottom=0;right=0;pointerEvents=1;fontSize=16;" parent="V8MGVwaTu69svF25npwr-5" vertex="1">
          <mxGeometry width="260" height="50" as="geometry">
            <mxRectangle width="260" height="50" as="alternateBounds" />
          </mxGeometry>
        </mxCell>
        <mxCell id="V8MGVwaTu69svF25npwr-7" value="Class (see&amp;nbsp;&lt;a href=&quot;https://chowlk.linkeddata.es/notation.html&quot;&gt;Chowlk | Notation&lt;/a&gt;). The main classes have been assigned a colour, which are consistent across all diagrams in this repository (custom notation)." style="shape=partialRectangle;html=1;whiteSpace=wrap;connectable=0;strokeColor=inherit;overflow=hidden;fillColor=none;top=0;left=0;bottom=0;right=0;pointerEvents=1;fontSize=16;align=left;" parent="V8MGVwaTu69svF25npwr-5" vertex="1">
          <mxGeometry x="260" width="720" height="50" as="geometry">
            <mxRectangle width="720" height="50" as="alternateBounds" />
          </mxGeometry>
        </mxCell>
        <mxCell id="V8MGVwaTu69svF25npwr-8" value="" style="shape=tableRow;horizontal=0;startSize=0;swimlaneHead=0;swimlaneBody=0;strokeColor=inherit;top=0;left=0;bottom=0;right=0;collapsible=0;dropTarget=0;fillColor=none;points=[[0,0.5],[1,0.5]];portConstraint=eastwest;fontSize=16;" parent="V8MGVwaTu69svF25npwr-1" vertex="1">
          <mxGeometry y="100" width="980" height="90" as="geometry" />
        </mxCell>
        <mxCell id="V8MGVwaTu69svF25npwr-9" value="" style="shape=partialRectangle;html=1;whiteSpace=wrap;connectable=0;strokeColor=inherit;overflow=hidden;fillColor=none;top=0;left=0;bottom=0;right=0;pointerEvents=1;fontSize=16;" parent="V8MGVwaTu69svF25npwr-8" vertex="1">
          <mxGeometry width="260" height="90" as="geometry">
            <mxRectangle width="260" height="90" as="alternateBounds" />
          </mxGeometry>
        </mxCell>
        <mxCell id="V8MGVwaTu69svF25npwr-10" value="Qualified cardinality restriction of a concept on a data property&amp;nbsp;(see&amp;nbsp;&lt;a href=&quot;https://chowlk.linkeddata.es/notation.html&quot;&gt;Chowlk | Notation&lt;/a&gt;)." style="shape=partialRectangle;html=1;whiteSpace=wrap;connectable=0;strokeColor=inherit;overflow=hidden;fillColor=none;top=0;left=0;bottom=0;right=0;pointerEvents=1;fontSize=16;align=left;" parent="V8MGVwaTu69svF25npwr-8" vertex="1">
          <mxGeometry x="260" width="720" height="90" as="geometry">
            <mxRectangle width="720" height="90" as="alternateBounds" />
          </mxGeometry>
        </mxCell>
        <mxCell id="V8MGVwaTu69svF25npwr-11" value="" style="shape=tableRow;horizontal=0;startSize=0;swimlaneHead=0;swimlaneBody=0;strokeColor=inherit;top=0;left=0;bottom=0;right=0;collapsible=0;dropTarget=0;fillColor=none;points=[[0,0.5],[1,0.5]];portConstraint=eastwest;fontSize=16;" parent="V8MGVwaTu69svF25npwr-1" vertex="1">
          <mxGeometry y="190" width="980" height="80" as="geometry" />
        </mxCell>
        <mxCell id="V8MGVwaTu69svF25npwr-12" value="" style="shape=partialRectangle;html=1;whiteSpace=wrap;connectable=0;strokeColor=inherit;overflow=hidden;fillColor=none;top=0;left=0;bottom=0;right=0;pointerEvents=1;fontSize=16;" parent="V8MGVwaTu69svF25npwr-11" vertex="1">
          <mxGeometry width="260" height="80" as="geometry">
            <mxRectangle width="260" height="80" as="alternateBounds" />
          </mxGeometry>
        </mxCell>
        <mxCell id="V8MGVwaTu69svF25npwr-13" value="Individual belonging to a class (see&amp;nbsp;&lt;a href=&quot;https://chowlk.linkeddata.es/notation.html&quot;&gt;Chowlk | Notation&lt;/a&gt;)." style="shape=partialRectangle;html=1;whiteSpace=wrap;connectable=0;strokeColor=inherit;overflow=hidden;fillColor=none;top=0;left=0;bottom=0;right=0;pointerEvents=1;fontSize=16;align=left;" parent="V8MGVwaTu69svF25npwr-11" vertex="1">
          <mxGeometry x="260" width="720" height="80" as="geometry">
            <mxRectangle width="720" height="80" as="alternateBounds" />
          </mxGeometry>
        </mxCell>
        <mxCell id="V8MGVwaTu69svF25npwr-14" style="shape=tableRow;horizontal=0;startSize=0;swimlaneHead=0;swimlaneBody=0;strokeColor=inherit;top=0;left=0;bottom=0;right=0;collapsible=0;dropTarget=0;fillColor=none;points=[[0,0.5],[1,0.5]];portConstraint=eastwest;fontSize=16;" parent="V8MGVwaTu69svF25npwr-1" vertex="1">
          <mxGeometry y="270" width="980" height="40" as="geometry" />
        </mxCell>
        <mxCell id="V8MGVwaTu69svF25npwr-15" style="shape=partialRectangle;html=1;whiteSpace=wrap;connectable=0;strokeColor=inherit;overflow=hidden;fillColor=none;top=0;left=0;bottom=0;right=0;pointerEvents=1;fontSize=16;" parent="V8MGVwaTu69svF25npwr-14" vertex="1">
          <mxGeometry width="260" height="40" as="geometry">
            <mxRectangle width="260" height="40" as="alternateBounds" />
          </mxGeometry>
        </mxCell>
        <mxCell id="V8MGVwaTu69svF25npwr-16" value="Qualified cardinality restriction of a concept on an object property&amp;nbsp;(see&amp;nbsp;&lt;a href=&quot;https://chowlk.linkeddata.es/notation.html&quot;&gt;Chowlk | Notation&lt;/a&gt;)." style="shape=partialRectangle;html=1;whiteSpace=wrap;connectable=0;strokeColor=inherit;overflow=hidden;fillColor=none;top=0;left=0;bottom=0;right=0;pointerEvents=1;fontSize=16;align=left;" parent="V8MGVwaTu69svF25npwr-14" vertex="1">
          <mxGeometry x="260" width="720" height="40" as="geometry">
            <mxRectangle width="720" height="40" as="alternateBounds" />
          </mxGeometry>
        </mxCell>
        <mxCell id="V8MGVwaTu69svF25npwr-17" style="shape=tableRow;horizontal=0;startSize=0;swimlaneHead=0;swimlaneBody=0;strokeColor=inherit;top=0;left=0;bottom=0;right=0;collapsible=0;dropTarget=0;fillColor=none;points=[[0,0.5],[1,0.5]];portConstraint=eastwest;fontSize=16;" parent="V8MGVwaTu69svF25npwr-1" vertex="1">
          <mxGeometry y="310" width="980" height="40" as="geometry" />
        </mxCell>
        <mxCell id="V8MGVwaTu69svF25npwr-18" style="shape=partialRectangle;html=1;whiteSpace=wrap;connectable=0;strokeColor=inherit;overflow=hidden;fillColor=none;top=0;left=0;bottom=0;right=0;pointerEvents=1;fontSize=16;" parent="V8MGVwaTu69svF25npwr-17" vertex="1">
          <mxGeometry width="260" height="40" as="geometry">
            <mxRectangle width="260" height="40" as="alternateBounds" />
          </mxGeometry>
        </mxCell>
        <mxCell id="V8MGVwaTu69svF25npwr-19" value="Sub-class relationship between two classes&amp;nbsp;(see&amp;nbsp;&lt;a href=&quot;https://chowlk.linkeddata.es/notation.html&quot;&gt;Chowlk | Notation&lt;/a&gt;)." style="shape=partialRectangle;html=1;whiteSpace=wrap;connectable=0;strokeColor=inherit;overflow=hidden;fillColor=none;top=0;left=0;bottom=0;right=0;pointerEvents=1;fontSize=16;align=left;" parent="V8MGVwaTu69svF25npwr-17" vertex="1">
          <mxGeometry x="260" width="720" height="40" as="geometry">
            <mxRectangle width="720" height="40" as="alternateBounds" />
          </mxGeometry>
        </mxCell>
        <mxCell id="V8MGVwaTu69svF25npwr-20" style="shape=tableRow;horizontal=0;startSize=0;swimlaneHead=0;swimlaneBody=0;strokeColor=inherit;top=0;left=0;bottom=0;right=0;collapsible=0;dropTarget=0;fillColor=none;points=[[0,0.5],[1,0.5]];portConstraint=eastwest;fontSize=16;" parent="V8MGVwaTu69svF25npwr-1" vertex="1">
          <mxGeometry y="350" width="980" height="90" as="geometry" />
        </mxCell>
        <mxCell id="V8MGVwaTu69svF25npwr-21" style="shape=partialRectangle;html=1;whiteSpace=wrap;connectable=0;strokeColor=inherit;overflow=hidden;fillColor=none;top=0;left=0;bottom=0;right=0;pointerEvents=1;fontSize=16;" parent="V8MGVwaTu69svF25npwr-20" vertex="1">
          <mxGeometry width="260" height="90" as="geometry">
            <mxRectangle width="260" height="90" as="alternateBounds" />
          </mxGeometry>
        </mxCell>
        <mxCell id="V8MGVwaTu69svF25npwr-22" value="Union of classes&amp;nbsp;(see&amp;nbsp;&lt;a href=&quot;https://chowlk.linkeddata.es/notation.html&quot;&gt;Chowlk | Notation&lt;/a&gt;)." style="shape=partialRectangle;html=1;whiteSpace=wrap;connectable=0;strokeColor=inherit;overflow=hidden;fillColor=none;top=0;left=0;bottom=0;right=0;pointerEvents=1;fontSize=16;align=left;" parent="V8MGVwaTu69svF25npwr-20" vertex="1">
          <mxGeometry x="260" width="720" height="90" as="geometry">
            <mxRectangle width="720" height="90" as="alternateBounds" />
          </mxGeometry>
        </mxCell>
        <mxCell id="V8MGVwaTu69svF25npwr-23" style="shape=tableRow;horizontal=0;startSize=0;swimlaneHead=0;swimlaneBody=0;strokeColor=inherit;top=0;left=0;bottom=0;right=0;collapsible=0;dropTarget=0;fillColor=none;points=[[0,0.5],[1,0.5]];portConstraint=eastwest;fontSize=16;" parent="V8MGVwaTu69svF25npwr-1" vertex="1">
          <mxGeometry y="440" width="980" height="60" as="geometry" />
        </mxCell>
        <mxCell id="V8MGVwaTu69svF25npwr-24" style="shape=partialRectangle;html=1;whiteSpace=wrap;connectable=0;strokeColor=inherit;overflow=hidden;fillColor=none;top=0;left=0;bottom=0;right=0;pointerEvents=1;fontSize=16;" parent="V8MGVwaTu69svF25npwr-23" vertex="1">
          <mxGeometry width="260" height="60" as="geometry">
            <mxRectangle width="260" height="60" as="alternateBounds" />
          </mxGeometry>
        </mxCell>
        <mxCell id="V8MGVwaTu69svF25npwr-25" value="Block to indicate all the namespaces used in the ontology. The @base namespace is the URI used for the current ontology&amp;nbsp;(see&amp;nbsp;&lt;a href=&quot;https://chowlk.linkeddata.es/notation.html&quot;&gt;Chowlk | Notation&lt;/a&gt;)." style="shape=partialRectangle;html=1;whiteSpace=wrap;connectable=0;strokeColor=inherit;overflow=hidden;fillColor=none;top=0;left=0;bottom=0;right=0;pointerEvents=1;fontSize=16;align=left;" parent="V8MGVwaTu69svF25npwr-23" vertex="1">
          <mxGeometry x="260" width="720" height="60" as="geometry">
            <mxRectangle width="720" height="60" as="alternateBounds" />
          </mxGeometry>
        </mxCell>
        <mxCell id="V8MGVwaTu69svF25npwr-26" style="shape=tableRow;horizontal=0;startSize=0;swimlaneHead=0;swimlaneBody=0;strokeColor=inherit;top=0;left=0;bottom=0;right=0;collapsible=0;dropTarget=0;fillColor=none;points=[[0,0.5],[1,0.5]];portConstraint=eastwest;fontSize=16;" parent="V8MGVwaTu69svF25npwr-1" vertex="1">
          <mxGeometry y="500" width="980" height="90" as="geometry" />
        </mxCell>
        <mxCell id="V8MGVwaTu69svF25npwr-27" style="shape=partialRectangle;html=1;whiteSpace=wrap;connectable=0;strokeColor=inherit;overflow=hidden;fillColor=none;top=0;left=0;bottom=0;right=0;pointerEvents=1;fontSize=16;" parent="V8MGVwaTu69svF25npwr-26" vertex="1">
          <mxGeometry width="260" height="90" as="geometry">
            <mxRectangle width="260" height="90" as="alternateBounds" />
          </mxGeometry>
        </mxCell>
        <mxCell id="V8MGVwaTu69svF25npwr-28" value="Block to indicate annotation properties describing the ontology. The annotations should include the prefix and the annotation name&amp;nbsp;(see&amp;nbsp;&lt;a href=&quot;https://chowlk.linkeddata.es/notation.html&quot;&gt;Chowlk | Notation&lt;/a&gt;)." style="shape=partialRectangle;html=1;whiteSpace=wrap;connectable=0;strokeColor=inherit;overflow=hidden;fillColor=none;top=0;left=0;bottom=0;right=0;pointerEvents=1;fontSize=16;align=left;" parent="V8MGVwaTu69svF25npwr-26" vertex="1">
          <mxGeometry x="260" width="720" height="90" as="geometry">
            <mxRectangle width="720" height="90" as="alternateBounds" />
          </mxGeometry>
        </mxCell>
        <mxCell id="V8MGVwaTu69svF25npwr-29" style="shape=tableRow;horizontal=0;startSize=0;swimlaneHead=0;swimlaneBody=0;strokeColor=inherit;top=0;left=0;bottom=0;right=0;collapsible=0;dropTarget=0;fillColor=none;points=[[0,0.5],[1,0.5]];portConstraint=eastwest;fontSize=16;" parent="V8MGVwaTu69svF25npwr-1" vertex="1">
          <mxGeometry y="590" width="980" height="90" as="geometry" />
        </mxCell>
        <mxCell id="V8MGVwaTu69svF25npwr-30" style="shape=partialRectangle;html=1;whiteSpace=wrap;connectable=0;strokeColor=inherit;overflow=hidden;fillColor=none;top=0;left=0;bottom=0;right=0;pointerEvents=1;fontSize=16;" parent="V8MGVwaTu69svF25npwr-29" vertex="1">
          <mxGeometry width="260" height="90" as="geometry">
            <mxRectangle width="260" height="90" as="alternateBounds" />
          </mxGeometry>
        </mxCell>
        <mxCell id="V8MGVwaTu69svF25npwr-31" value="Any entity that is indicated as being a member of one of the classes in this block must be explicitly indicated as being a member of all other classes in the block as well (custom notation)." style="shape=partialRectangle;html=1;whiteSpace=wrap;connectable=0;strokeColor=inherit;overflow=hidden;fillColor=none;top=0;left=0;bottom=0;right=0;pointerEvents=1;fontSize=16;align=left;" parent="V8MGVwaTu69svF25npwr-29" vertex="1">
          <mxGeometry x="260" width="720" height="90" as="geometry">
            <mxRectangle width="720" height="90" as="alternateBounds" />
          </mxGeometry>
        </mxCell>
        <mxCell id="V8MGVwaTu69svF25npwr-32" style="shape=tableRow;horizontal=0;startSize=0;swimlaneHead=0;swimlaneBody=0;strokeColor=inherit;top=0;left=0;bottom=0;right=0;collapsible=0;dropTarget=0;fillColor=none;points=[[0,0.5],[1,0.5]];portConstraint=eastwest;fontSize=16;" parent="V8MGVwaTu69svF25npwr-1" vertex="1">
          <mxGeometry y="680" width="980" height="90" as="geometry" />
        </mxCell>
        <mxCell id="V8MGVwaTu69svF25npwr-33" style="shape=partialRectangle;html=1;whiteSpace=wrap;connectable=0;strokeColor=inherit;overflow=hidden;fillColor=none;top=0;left=0;bottom=0;right=0;pointerEvents=1;fontSize=16;" parent="V8MGVwaTu69svF25npwr-32" vertex="1">
          <mxGeometry width="260" height="90" as="geometry">
            <mxRectangle width="260" height="90" as="alternateBounds" />
          </mxGeometry>
        </mxCell>
        <mxCell id="V8MGVwaTu69svF25npwr-34" value="Blocks may overlap, meaning that any entity that is indicated as being a member of one of the classes&amp;nbsp;in the lowest layer must respect the rule for the layer in question and all layers above it. The inverse is not true, so that any entity that is indicated as being a member of one of the classes&amp;nbsp;in the highest layer is only required to respect the rule for the layer in question&amp;nbsp;(custom notation)." style="shape=partialRectangle;html=1;whiteSpace=wrap;connectable=0;strokeColor=inherit;overflow=hidden;fillColor=none;top=0;left=0;bottom=0;right=0;pointerEvents=1;fontSize=16;align=left;" parent="V8MGVwaTu69svF25npwr-32" vertex="1">
          <mxGeometry x="260" width="720" height="90" as="geometry">
            <mxRectangle width="720" height="90" as="alternateBounds" />
          </mxGeometry>
        </mxCell>
        <mxCell id="V8MGVwaTu69svF25npwr-35" style="shape=tableRow;horizontal=0;startSize=0;swimlaneHead=0;swimlaneBody=0;strokeColor=inherit;top=0;left=0;bottom=0;right=0;collapsible=0;dropTarget=0;fillColor=none;points=[[0,0.5],[1,0.5]];portConstraint=eastwest;fontSize=16;" parent="V8MGVwaTu69svF25npwr-1" vertex="1">
          <mxGeometry y="770" width="980" height="100" as="geometry" />
        </mxCell>
        <mxCell id="V8MGVwaTu69svF25npwr-36" style="shape=partialRectangle;html=1;whiteSpace=wrap;connectable=0;strokeColor=inherit;overflow=hidden;fillColor=none;top=0;left=0;bottom=0;right=0;pointerEvents=1;fontSize=16;" parent="V8MGVwaTu69svF25npwr-35" vertex="1">
          <mxGeometry width="260" height="100" as="geometry">
            <mxRectangle width="260" height="100" as="alternateBounds" />
          </mxGeometry>
        </mxCell>
        <mxCell id="V8MGVwaTu69svF25npwr-37" value="Set of concepts that originate from a specified external vocabulary (custom notation)." style="shape=partialRectangle;html=1;whiteSpace=wrap;connectable=0;strokeColor=inherit;overflow=hidden;fillColor=none;top=0;left=0;bottom=0;right=0;pointerEvents=1;fontSize=16;align=left;" parent="V8MGVwaTu69svF25npwr-35" vertex="1">
          <mxGeometry x="260" width="720" height="100" as="geometry">
            <mxRectangle width="720" height="100" as="alternateBounds" />
          </mxGeometry>
        </mxCell>
        <mxCell id="V8MGVwaTu69svF25npwr-41" value="ns:Class" style="rounded=0;whiteSpace=wrap;html=1;strokeWidth=1;fontStyle=0;fontSize=13;verticalAlign=middle;" parent="1" vertex="1">
          <mxGeometry x="50" y="-1060" width="170" height="30" as="geometry" />
        </mxCell>
        <mxCell id="V8MGVwaTu69svF25npwr-42" value="&lt;u&gt;ns:Individual&lt;/u&gt;" style="rounded=0;whiteSpace=wrap;html=1;strokeWidth=1;fontStyle=0;fontSize=13;verticalAlign=middle;" parent="1" vertex="1">
          <mxGeometry x="50" y="-890" width="170" height="30" as="geometry" />
        </mxCell>
        <mxCell id="V8MGVwaTu69svF25npwr-44" value="ns:Class" style="rounded=0;whiteSpace=wrap;html=1;strokeWidth=1;fontStyle=0;fontSize=13;verticalAlign=middle;" parent="1" vertex="1">
          <mxGeometry x="50" y="-1010" width="170" height="30" as="geometry" />
        </mxCell>
        <mxCell id="V8MGVwaTu69svF25npwr-45" value="[0..N2] ns:datatypeProperty: ns:Datatype" style="rounded=0;whiteSpace=wrap;html=1;strokeWidth=1;fontStyle=0;fontSize=13;verticalAlign=middle;" parent="1" vertex="1">
          <mxGeometry x="50" y="-980" width="170" height="40" as="geometry" />
        </mxCell>
        <mxCell id="V8MGVwaTu69svF25npwr-50" style="edgeStyle=orthogonalEdgeStyle;rounded=0;orthogonalLoop=1;jettySize=auto;html=1;endArrow=block;endFill=0;jumpStyle=arc;" parent="1" edge="1">
          <mxGeometry relative="1" as="geometry">
            <mxPoint x="50" y="-790" as="sourcePoint" />
            <mxPoint x="220" y="-790" as="targetPoint" />
          </mxGeometry>
        </mxCell>
        <mxCell id="V8MGVwaTu69svF25npwr-51" style="edgeStyle=orthogonalEdgeStyle;rounded=0;orthogonalLoop=1;jettySize=auto;html=1;jumpStyle=arc;" parent="1" edge="1">
          <mxGeometry relative="1" as="geometry">
            <mxPoint x="50" y="-830" as="sourcePoint" />
            <mxPoint x="220" y="-830" as="targetPoint" />
          </mxGeometry>
        </mxCell>
        <mxCell id="V8MGVwaTu69svF25npwr-52" value="&lt;font style=&quot;font-size: 12px;&quot;&gt;ns:objectProperty [0..N2]&lt;/font&gt;" style="edgeLabel;html=1;align=center;verticalAlign=middle;resizable=0;points=[];" parent="V8MGVwaTu69svF25npwr-51" vertex="1" connectable="0">
          <mxGeometry x="0.1954" relative="1" as="geometry">
            <mxPoint x="-18" as="offset" />
          </mxGeometry>
        </mxCell>
        <mxCell id="V8MGVwaTu69svF25npwr-59" value="ns:Class" style="rounded=0;whiteSpace=wrap;html=1;strokeWidth=1;fontStyle=0;fontSize=13;verticalAlign=middle;" parent="1" vertex="1">
          <mxGeometry x="50" y="-920" width="170" height="30" as="geometry" />
        </mxCell>
        <mxCell id="V8MGVwaTu69svF25npwr-61" value="" style="rounded=1;whiteSpace=wrap;html=1;snapToPoint=1;points=[[0.1,0],[0.2,0],[0.3,0],[0.4,0],[0.5,0],[0.6,0],[0.7,0],[0.8,0],[0.9,0],[0,0.1],[0,0.3],[0,0.5],[0,0.7],[0,0.9],[0.1,1],[0.2,1],[0.3,1],[0.4,1],[0.5,1],[0.6,1],[0.7,1],[0.8,1],[0.9,1],[1,0.1],[1,0.3],[1,0.5],[1,0.7],[1,0.9]];fillColor=#E6E6E6;dashed=1;dashPattern=1 4;" parent="1" vertex="1">
          <mxGeometry x="50" y="-520" width="220" height="70" as="geometry" />
        </mxCell>
        <mxCell id="V8MGVwaTu69svF25npwr-63" value="" style="rounded=1;whiteSpace=wrap;html=1;snapToPoint=1;points=[[0.1,0],[0.2,0],[0.3,0],[0.4,0],[0.5,0],[0.6,0],[0.7,0],[0.8,0],[0.9,0],[0,0.1],[0,0.3],[0,0.5],[0,0.7],[0,0.9],[0.1,1],[0.2,1],[0.3,1],[0.4,1],[0.5,1],[0.6,1],[0.7,1],[0.8,1],[0.9,1],[1,0.1],[1,0.3],[1,0.5],[1,0.7],[1,0.9]];fillColor=none;dashed=1;dashPattern=12 12;strokeColor=#999999;arcSize=7;" parent="1" vertex="1">
          <mxGeometry x="50" y="-340" width="240" height="80" as="geometry" />
        </mxCell>
        <mxCell id="V8MGVwaTu69svF25npwr-64" value="&lt;div&gt;Ontology Acronym (with link), Full Name&lt;/div&gt;" style="text;html=1;align=left;verticalAlign=middle;resizable=0;points=[];autosize=1;strokeColor=none;fillColor=none;fontColor=#999999;" parent="1" vertex="1">
          <mxGeometry x="60" y="-290" width="240" height="30" as="geometry" />
        </mxCell>
        <mxCell id="V8MGVwaTu69svF25npwr-65" value="ns:Class2" style="rounded=0;whiteSpace=wrap;html=1;snapToPoint=1;points=[[0.1,0],[0.2,0],[0.3,0],[0.4,0],[0.5,0],[0.6,0],[0.7,0],[0.8,0],[0.9,0],[0,0.1],[0,0.3],[0,0.5],[0,0.7],[0,0.9],[0.1,1],[0.2,1],[0.3,1],[0.4,1],[0.5,1],[0.6,1],[0.7,1],[0.8,1],[0.9,1],[1,0.1],[1,0.3],[1,0.5],[1,0.7],[1,0.9]];" parent="1" vertex="1">
          <mxGeometry x="150" y="-720" width="80" height="30" as="geometry" />
        </mxCell>
        <mxCell id="V8MGVwaTu69svF25npwr-66" value="ns:Class1" style="rounded=0;whiteSpace=wrap;html=1;snapToPoint=1;points=[[0.1,0],[0.2,0],[0.3,0],[0.4,0],[0.5,0],[0.6,0],[0.7,0],[0.8,0],[0.9,0],[0,0.1],[0,0.3],[0,0.5],[0,0.7],[0,0.9],[0.1,1],[0.2,1],[0.3,1],[0.4,1],[0.5,1],[0.6,1],[0.7,1],[0.8,1],[0.9,1],[1,0.1],[1,0.3],[1,0.5],[1,0.7],[1,0.9]];" parent="1" vertex="1">
          <mxGeometry x="150" y="-760" width="80" height="30" as="geometry" />
        </mxCell>
        <mxCell id="V8MGVwaTu69svF25npwr-67" value="" style="group" parent="1" vertex="1" connectable="0">
          <mxGeometry x="50" y="-740" width="30" height="30" as="geometry" />
        </mxCell>
        <mxCell id="V8MGVwaTu69svF25npwr-68" value="&lt;span class=&quot;st&quot;&gt;⨆&lt;/span&gt;" style="ellipse;whiteSpace=wrap;html=1;aspect=fixed;fontSize=17;" parent="V8MGVwaTu69svF25npwr-67" vertex="1">
          <mxGeometry width="30" height="30" as="geometry" />
        </mxCell>
        <mxCell id="V8MGVwaTu69svF25npwr-69" value="" style="endArrow=diamondThin;endSize=12;html=1;fontColor=#000099;exitX=1;exitY=0;exitDx=0;exitDy=0;endFill=0;dashed=1;entryX=0;entryY=0.5;entryDx=0;entryDy=0;arcSize=0;rounded=0;" parent="1" source="V8MGVwaTu69svF25npwr-68" target="V8MGVwaTu69svF25npwr-66" edge="1">
          <mxGeometry width="50" height="50" relative="1" as="geometry">
            <mxPoint x="-112" y="-675" as="sourcePoint" />
            <mxPoint x="103" y="-710" as="targetPoint" />
          </mxGeometry>
        </mxCell>
        <mxCell id="V8MGVwaTu69svF25npwr-70" value="" style="endArrow=diamondThin;endSize=12;html=1;fontColor=#000099;exitX=1;exitY=1;exitDx=0;exitDy=0;endFill=0;dashed=1;entryX=0;entryY=0.5;entryDx=0;entryDy=0;arcSize=0;rounded=0;" parent="1" source="V8MGVwaTu69svF25npwr-68" target="V8MGVwaTu69svF25npwr-65" edge="1">
          <mxGeometry width="50" height="50" relative="1" as="geometry">
            <mxPoint x="71.60660171779818" y="-685.6066017177982" as="sourcePoint" />
            <mxPoint x="103" y="-590" as="targetPoint" />
          </mxGeometry>
        </mxCell>
        <mxCell id="V8MGVwaTu69svF25npwr-71" value="&lt;div&gt;&lt;b&gt;@base&lt;/b&gt;: http://example.com#&lt;/div&gt;&lt;div&gt;&lt;b&gt;ns&lt;/b&gt;:&amp;nbsp;&lt;span style=&quot;background-color: transparent; color: light-dark(rgb(0, 0, 0), rgb(255, 255, 255));&quot;&gt;http://namespace.com#&lt;/span&gt;&lt;/div&gt;" style="shape=note;whiteSpace=wrap;html=1;backgroundOutline=1;darkOpacity=0.05;size=19;" parent="1" vertex="1">
          <mxGeometry x="50" y="-670" width="220" height="40" as="geometry" />
        </mxCell>
        <mxCell id="V8MGVwaTu69svF25npwr-72" value="&lt;div&gt;&lt;b style=&quot;border-color: var(--border-color);&quot;&gt;owl:Ontology&lt;/b&gt;: &amp;lt;&lt;span style=&quot;background-color: rgb(251, 251, 251);&quot;&gt;http://example.com&lt;/span&gt;&lt;span style=&quot;background-color: light-dark(rgb(255, 255, 255), rgb(18, 18, 18)); color: light-dark(rgb(0, 0, 0), rgb(237, 237, 237));&quot;&gt;&amp;gt;&lt;/span&gt;&lt;/div&gt;&lt;div&gt;&lt;b&gt;&lt;br&gt;&lt;/b&gt;&lt;/div&gt;&lt;div&gt;&lt;b&gt;dcterms:title&lt;/b&gt;: &quot;Example Ontology&quot;@en&lt;br&gt;&lt;/div&gt;" style="shape=document;whiteSpace=wrap;html=1;boundedLbl=1;labelBackgroundColor=#ffffff;strokeColor=#000000;fontSize=12;fontColor=#000000;size=0.1875;" parent="1" vertex="1">
          <mxGeometry x="50" y="-610" width="220" height="70" as="geometry" />
        </mxCell>
        <mxCell id="V8MGVwaTu69svF25npwr-77" value="ns:Class1" style="rounded=0;whiteSpace=wrap;html=1;snapToPoint=1;points=[[0.1,0],[0.2,0],[0.3,0],[0.4,0],[0.5,0],[0.6,0],[0.7,0],[0.8,0],[0.9,0],[0,0.1],[0,0.3],[0,0.5],[0,0.7],[0,0.9],[0.1,1],[0.2,1],[0.3,1],[0.4,1],[0.5,1],[0.6,1],[0.7,1],[0.8,1],[0.9,1],[1,0.1],[1,0.3],[1,0.5],[1,0.7],[1,0.9]];" parent="1" vertex="1">
          <mxGeometry x="70" y="-500" width="80" height="30" as="geometry" />
        </mxCell>
        <mxCell id="V8MGVwaTu69svF25npwr-78" value="ns:Class2" style="rounded=0;whiteSpace=wrap;html=1;snapToPoint=1;points=[[0.1,0],[0.2,0],[0.3,0],[0.4,0],[0.5,0],[0.6,0],[0.7,0],[0.8,0],[0.9,0],[0,0.1],[0,0.3],[0,0.5],[0,0.7],[0,0.9],[0.1,1],[0.2,1],[0.3,1],[0.4,1],[0.5,1],[0.6,1],[0.7,1],[0.8,1],[0.9,1],[1,0.1],[1,0.3],[1,0.5],[1,0.7],[1,0.9]];" parent="1" vertex="1">
          <mxGeometry x="170" y="-500" width="80" height="30" as="geometry" />
        </mxCell>
        <mxCell id="V8MGVwaTu69svF25npwr-79" value="" style="rounded=1;whiteSpace=wrap;html=1;snapToPoint=1;points=[[0.1,0],[0.2,0],[0.3,0],[0.4,0],[0.5,0],[0.6,0],[0.7,0],[0.8,0],[0.9,0],[0,0.1],[0,0.3],[0,0.5],[0,0.7],[0,0.9],[0.1,1],[0.2,1],[0.3,1],[0.4,1],[0.5,1],[0.6,1],[0.7,1],[0.8,1],[0.9,1],[1,0.1],[1,0.3],[1,0.5],[1,0.7],[1,0.9]];fillColor=#E6E6E6;dashed=1;dashPattern=1 4;" parent="1" vertex="1">
          <mxGeometry x="50" y="-430" width="240" height="70" as="geometry" />
        </mxCell>
        <mxCell id="V8MGVwaTu69svF25npwr-82" value="" style="rounded=1;whiteSpace=wrap;html=1;snapToPoint=1;points=[[0.1,0],[0.2,0],[0.3,0],[0.4,0],[0.5,0],[0.6,0],[0.7,0],[0.8,0],[0.9,0],[0,0.1],[0,0.3],[0,0.5],[0,0.7],[0,0.9],[0.1,1],[0.2,1],[0.3,1],[0.4,1],[0.5,1],[0.6,1],[0.7,1],[0.8,1],[0.9,1],[1,0.1],[1,0.3],[1,0.5],[1,0.7],[1,0.9]];fillColor=#E6E6E6;dashed=1;dashPattern=1 4;" parent="1" vertex="1">
          <mxGeometry x="50" y="-430" width="120" height="70" as="geometry" />
        </mxCell>
        <mxCell id="V8MGVwaTu69svF25npwr-80" value="ns:Class1" style="rounded=0;whiteSpace=wrap;html=1;snapToPoint=1;points=[[0.1,0],[0.2,0],[0.3,0],[0.4,0],[0.5,0],[0.6,0],[0.7,0],[0.8,0],[0.9,0],[0,0.1],[0,0.3],[0,0.5],[0,0.7],[0,0.9],[0.1,1],[0.2,1],[0.3,1],[0.4,1],[0.5,1],[0.6,1],[0.7,1],[0.8,1],[0.9,1],[1,0.1],[1,0.3],[1,0.5],[1,0.7],[1,0.9]];" parent="1" vertex="1">
          <mxGeometry x="70" y="-410" width="80" height="30" as="geometry" />
        </mxCell>
        <mxCell id="V8MGVwaTu69svF25npwr-81" value="ns:Class2" style="rounded=0;whiteSpace=wrap;html=1;snapToPoint=1;points=[[0.1,0],[0.2,0],[0.3,0],[0.4,0],[0.5,0],[0.6,0],[0.7,0],[0.8,0],[0.9,0],[0,0.1],[0,0.3],[0,0.5],[0,0.7],[0,0.9],[0.1,1],[0.2,1],[0.3,1],[0.4,1],[0.5,1],[0.6,1],[0.7,1],[0.8,1],[0.9,1],[1,0.1],[1,0.3],[1,0.5],[1,0.7],[1,0.9]];" parent="1" vertex="1">
          <mxGeometry x="190" y="-410" width="80" height="30" as="geometry" />
        </mxCell>
      </root>
    </mxGraphModel>
  </diagram>
</mxfile>
